<svg xmlns="http://www.w3.org/2000/svg" version="1.1" xmlns:xlink="http://www.w3.org/1999/xlink" xmlns:svgjs="http://svgjs.dev/svgjs" width="2000" height="595" viewBox="0 0 2000 595"><g transform="matrix(1,0,0,1,-1.2121212121212466,-0.5784095224383918)"><svg viewBox="0 0 396 118" data-background-color="#f9f9f9" preserveAspectRatio="xMidYMid meet" height="595" width="2000" xmlns="http://www.w3.org/2000/svg" xmlns:xlink="http://www.w3.org/1999/xlink"><g id="tight-bounds" transform="matrix(1,0,0,1,0.2400000000000091,0.11470981081123455)"><svg viewBox="0 0 395.52 117.77058040154553" height="117.77058040154553" width="395.52"><g><svg viewBox="0 0 569.654018808812 169.6209658757755" height="117.77058040154553" width="395.52"><g><rect width="5.966903653630773" height="123.34954464917102" x="152.54694852263992" y="23.135710613302244" fill="#000000" opacity="1" stroke-width="0" stroke="transparent" fill-opacity="1" class="rect-o-0" data-fill-palette-color="primary" rx="1%" id="o-0" data-palette-color="#030303"></rect></g><g transform="matrix(1,0,0,1,174.134018808812,23.442550276608635)"><svg viewBox="0 0 395.52 122.73586532255824" height="122.73586532255824" width="395.52"><g><svg viewBox="0 0 395.52 122.73586532255824" height="122.73586532255824" width="395.52" id="textblock"><g><svg viewBox="0 0 395.52 66.16583910495471" height="66.16583910495471" width="395.52"><g transform="matrix(1,0,0,1,0,0)"><svg width="395.52" viewBox="0.8300000429153442 -37.84000015258789 225.69000244140625 38.33000183105469" height="66.16583910495471" data-palette-color="#030303"><g class="undefined-text-0" data-fill-palette-color="primary" id="text-0"><path d="M10.89 0L0.83-37.35 5.32-37.35 12.55-9.13 13.82-3.17 15.23-9.13 22.75-37.35 27.61-37.35 36.57-2.98 37.87-9.23 44.75-37.35 49.15-37.35 39.58 0 33.37 0 26.22-26.71 25.12-33.01 23.97-26.71 16.6 0 10.89 0ZM53.99-0.04Q53.54-0.54 53.42-1.16 53.29-1.78 53.29-2.75 53.29-3.71 53.43-4.32 53.56-4.93 53.9-5.27L53.9-5.27Q54.47-5.91 55.73-5.91 57-5.91 57.55-5.77 58.1-5.64 58.42-5.27L58.42-5.27Q58.98-4.66 58.98-2.76L58.98-2.76Q58.98-0.85 58.54-0.34L58.54-0.34Q57.86 0.46 56.15 0.46L56.15 0.46Q54.44 0.46 53.99-0.04Z" fill="#000000" data-fill-palette-color="primary"></path><path d="M61.57 0L61.57-2.08 80.24-33.86 62.84-33.86 62.84-37.35 85.35-37.35 85.35-35.21 66.74-3.44 85.2-3.44 85.2 0 61.57 0ZM93.89 0L93.89-37.35 98.04-37.35 98.04-20.48 115.69-20.48 115.69-37.35 119.82-37.35 119.82 0 115.69 0 115.69-16.94 98.04-16.94 98.04 0 93.89 0ZM126.77 0L139-37.35 144.69-37.35 157.75 0 153.34 0 149.62-10.96 134.59-10.96 131.07 0 126.77 0ZM135.71-14.45L148.45-14.45 141.86-34.06 141.1-31.27 135.71-14.45ZM164.64 0L164.64-37.35 167.93-37.35 185.12-10.21 187.34-5.59 186.8-10.72 186.8-37.35 190.59-37.35 190.59 0 187.1 0 170.03-27.08 167.88-31.27 168.42-26.29 168.42 0 164.64 0ZM225.79-36.06L224.81-32.28Q218.93-34.33 213.51-34.33L213.51-34.33Q207.92-34.33 206.24-29.74L206.24-29.74Q205.23-27.03 205.12-23.57 205.01-20.12 205.01-17.6L205.01-17.6 205.01-15.19Q205.01-7.4 207.63-4.86L207.63-4.86Q209.19-3.34 211.8-3.08L211.8-3.08Q213.02-2.93 214.32-2.93 215.61-2.93 216.82-3.06 218.03-3.2 219.13-3.42L219.13-3.42Q221.35-3.86 222.45-4.39L222.45-4.39 222.45-15.92 214.9-15.92 214.9-19.29 226.52-19.29 226.52-2.56Q224.23-0.83 218.39 0.15L218.39 0.15Q216.37 0.49 213.78 0.49 211.19 0.49 209.03-0.04 206.87-0.56 205.37-1.57 203.87-2.59 202.94-4.1 202.01-5.62 201.5-7.59L201.5-7.59Q200.67-10.91 200.67-15.78 200.67-20.65 200.84-23.47 201.01-26.29 201.51-28.58 202.01-30.86 202.92-32.59 203.82-34.33 205.28-35.5L205.28-35.5Q208.26-37.84 213.78-37.84L213.78-37.84Q220.08-37.84 224.55-36.45L224.55-36.45 225.79-36.06Z" fill="#000000" data-fill-palette-color="primary"></path></g></svg></g></svg></g><g transform="matrix(1,0,0,1,0,81.786005737496)"><svg viewBox="0 0 232.209792 40.949859585062235" height="40.949859585062235" width="232.209792"><g transform="matrix(1,0,0,1,0,0)"><svg width="232.209792" viewBox="2 -33.25 192.77999877929688 34" height="40.949859585062235" data-palette-color="#030303"><path d="M2 0L9.35-32.5 14.6-32.5 21.95 0 18.45 0 16.75-7.5 7.2-7.5 5.5 0 2 0ZM16.05-10.5L11.95-28.6 7.85-10.5 16.05-10.5ZM32.45-25L32.45 0 28.95 0 28.95-32.5 32.45-32.5 43.3-7.5 43.3-32.5 46.8-32.5 46.8 0 43.3 0 32.45-25ZM53.8 0L61.15-32.5 66.4-32.5 73.75 0 70.25 0 68.55-7.5 59-7.5 57.3 0 53.8 0ZM67.84-10.5L63.75-28.6 59.65-10.5 67.84-10.5ZM93.39 0L80.74 0 80.74-32.5 84.24-32.5 84.24-3 93.39-3 93.39 0ZM104.89-11.6L104.89 0 101.39 0 101.39-11.65 93.14-32.5 96.84-32.5 103.14-15.75 109.44-32.5 113.14-32.5 104.89-11.6ZM115.89-32.5L132.39-32.5 132.39-29.5 125.89-29.5 125.89 0 122.39 0 122.39-29.5 115.89-29.5 115.89-32.5ZM143.39-3L145.89-3 145.89 0 137.39 0 137.39-3 139.89-3 139.89-29.5 137.39-29.5 137.39-32.5 145.89-32.5 145.89-29.5 143.39-29.5 143.39-3ZM166.63-6.25L166.63-6.25 166.63-9 170.13-9 170.13-6.25Q170.13-2.9 168.08-1.07 166.03 0.75 161.93 0.75 157.83 0.75 155.73-1.07 153.63-2.9 153.63-6.25L153.63-6.25 153.63-26.25Q153.63-29.6 155.68-31.43 157.73-33.25 161.83-33.25 165.93-33.25 168.03-31.43 170.13-29.6 170.13-26.25L170.13-26.25 170.13-21.5 166.63-21.5 166.63-26.25Q166.63-30.25 161.88-30.25 157.13-30.25 157.13-26.25L157.13-26.25 157.13-6.25Q157.13-2.25 161.88-2.25 166.63-2.25 166.63-6.25ZM194.78-6.25L194.78-6.25Q194.78 0.75 186.33 0.75 177.88 0.75 177.88-6.25L177.88-6.25 177.88-10.5 181.38-10.5 181.38-6.05Q181.38-4.25 182.63-3.25 183.88-2.25 186.33-2.25 188.78-2.25 190.03-3.25 191.28-4.25 191.28-5.98 191.28-7.7 190.91-8.72 190.53-9.75 189.38-10.9L189.38-10.9 180.58-19.5Q179.03-21.05 178.46-22.53 177.88-24 177.88-26.25L177.88-26.25Q177.88-29.6 179.96-31.43 182.03-33.25 186.23-33.25L186.23-33.25Q194.28-33.25 194.28-26.25L194.28-26.25 194.28-22 190.78-22 190.78-26.45Q190.78-28.25 189.61-29.25 188.43-30.25 186.08-30.25 183.73-30.25 182.56-29.25 181.38-28.25 181.38-26.5 181.38-24.75 181.73-23.75 182.08-22.75 183.28-21.65L183.28-21.65 192.23-13.05Q193.68-11.45 194.23-9.98 194.78-8.5 194.78-6.25Z" opacity="1" transform="matrix(1,0,0,1,0,0)" fill="#000000" class="undefined-text-1" data-fill-palette-color="secondary" id="text-1"></path></svg></g></svg></g></svg></g></svg></g><g><svg viewBox="0 0 136.92678189009862 169.6209658757755" height="169.6209658757755" width="136.92678189009862"><g><svg xmlns="http://www.w3.org/2000/svg" xmlns:xlink="http://www.w3.org/1999/xlink" version="1.1" x="0" y="0" viewBox="9.613998413085938 0.00047719478607177734 80.77400970458984 100.0605239868164" enable-background="new 0 0 100 100" xml:space="preserve" width="136.92678189009862" height="169.6209658757755" class="icon-icon-0" data-fill-palette-color="accent" id="icon-0"><path fill="#000000" d="M90.386 16.252c0-0.012 0.001-0.024 0-0.036 0-0.019-0.003-0.039-0.003-0.058-0.002-0.033-0.003-0.065-0.006-0.097-0.003-0.031-0.006-0.062-0.009-0.092-0.004-0.032-0.008-0.064-0.012-0.096-0.004-0.03-0.01-0.061-0.015-0.091-0.006-0.032-0.012-0.063-0.019-0.095-0.006-0.03-0.014-0.06-0.021-0.089-0.008-0.031-0.016-0.062-0.025-0.092-0.008-0.029-0.017-0.058-0.027-0.087-0.01-0.03-0.02-0.06-0.031-0.091-0.01-0.028-0.021-0.057-0.032-0.085-0.012-0.03-0.024-0.059-0.037-0.089-0.012-0.027-0.024-0.054-0.037-0.082-0.014-0.029-0.029-0.058-0.044-0.087-0.013-0.026-0.027-0.052-0.042-0.078-0.016-0.029-0.033-0.057-0.05-0.084-0.015-0.025-0.03-0.05-0.046-0.074-0.018-0.028-0.037-0.055-0.056-0.082-0.017-0.024-0.033-0.047-0.05-0.071-0.02-0.027-0.041-0.053-0.061-0.079-0.018-0.023-0.036-0.045-0.055-0.067-0.022-0.025-0.044-0.05-0.067-0.075-0.019-0.021-0.038-0.043-0.058-0.063-0.023-0.024-0.048-0.047-0.072-0.071-0.021-0.02-0.042-0.04-0.063-0.06-0.025-0.022-0.051-0.044-0.076-0.065-0.023-0.019-0.045-0.038-0.068-0.056-0.026-0.021-0.053-0.04-0.08-0.06-0.024-0.018-0.048-0.035-0.072-0.052-0.028-0.019-0.057-0.037-0.085-0.055-0.025-0.016-0.05-0.032-0.076-0.047-0.005-0.003-0.01-0.006-0.015-0.009-0.026-0.015-0.053-0.029-0.08-0.043-0.02-0.011-0.04-0.023-0.061-0.034L62.276 0.306c-0.849-0.43-1.858-0.405-2.685 0.068L48.595 6.658c-0.013 0.007-0.025 0.016-0.037 0.023-0.013 0.008-0.027 0.015-0.04 0.023-0.015 0.01-0.03 0.02-0.045 0.03-0.025 0.016-0.051 0.033-0.076 0.05-0.027 0.018-0.053 0.038-0.079 0.057-0.024 0.018-0.048 0.036-0.072 0.054-0.026 0.02-0.05 0.041-0.075 0.062-0.023 0.019-0.045 0.038-0.067 0.058-0.024 0.022-0.048 0.045-0.071 0.068-0.021 0.02-0.042 0.04-0.062 0.061-0.023 0.024-0.046 0.049-0.068 0.074-0.019 0.021-0.038 0.041-0.056 0.063-0.022 0.026-0.043 0.053-0.064 0.08-0.017 0.021-0.034 0.042-0.051 0.064C47.71 7.451 47.69 7.48 47.67 7.509c-0.015 0.022-0.03 0.043-0.044 0.064-0.021 0.032-0.04 0.065-0.06 0.098-0.012 0.02-0.024 0.039-0.035 0.059-0.027 0.048-0.052 0.096-0.075 0.145-0.008 0.017-0.016 0.033-0.024 0.05-0.02 0.044-0.041 0.089-0.059 0.135-0.009 0.024-0.018 0.048-0.026 0.072-0.012 0.034-0.025 0.067-0.036 0.101-0.009 0.027-0.016 0.055-0.024 0.082-0.009 0.032-0.019 0.063-0.027 0.095-0.007 0.029-0.014 0.058-0.02 0.088-0.007 0.031-0.014 0.062-0.02 0.093-0.006 0.03-0.01 0.061-0.015 0.091-0.005 0.031-0.01 0.062-0.014 0.093-0.004 0.031-0.006 0.062-0.009 0.093-0.003 0.031-0.006 0.062-0.007 0.093-0.002 0.031-0.002 0.063-0.003 0.095 0 0.02-0.002 0.04-0.002 0.061V16.3L24.72 4.927c-0.849-0.43-1.858-0.405-2.684 0.068L11.04 11.279c-0.012 0.007-0.024 0.015-0.036 0.022-0.014 0.008-0.028 0.015-0.041 0.024-0.016 0.01-0.031 0.021-0.046 0.03-0.025 0.016-0.049 0.032-0.073 0.048-0.028 0.019-0.054 0.038-0.081 0.058-0.024 0.018-0.048 0.035-0.071 0.054-0.026 0.02-0.05 0.041-0.075 0.062-0.023 0.019-0.045 0.038-0.068 0.058-0.024 0.022-0.047 0.044-0.07 0.066-0.021 0.021-0.043 0.041-0.064 0.063-0.022 0.023-0.044 0.047-0.065 0.071-0.02 0.022-0.04 0.043-0.059 0.066-0.021 0.025-0.041 0.05-0.061 0.075-0.018 0.023-0.037 0.045-0.054 0.068-0.02 0.027-0.038 0.054-0.057 0.081-0.016 0.023-0.033 0.046-0.048 0.069-0.019 0.03-0.037 0.06-0.055 0.09-0.013 0.022-0.027 0.044-0.04 0.066-0.023 0.041-0.044 0.083-0.065 0.125-0.014 0.027-0.027 0.055-0.039 0.083-0.018 0.04-0.037 0.08-0.053 0.121-0.01 0.025-0.018 0.049-0.027 0.074-0.012 0.033-0.025 0.065-0.036 0.099-0.009 0.027-0.016 0.054-0.024 0.082-0.009 0.032-0.019 0.063-0.027 0.096-0.007 0.028-0.013 0.057-0.02 0.086-0.007 0.032-0.015 0.063-0.021 0.095-0.006 0.029-0.01 0.059-0.014 0.089-0.005 0.032-0.01 0.063-0.014 0.095-0.004 0.03-0.006 0.061-0.009 0.091-0.003 0.032-0.006 0.064-0.008 0.096-0.002 0.031-0.002 0.062-0.003 0.093 0 0.021-0.002 0.041-0.002 0.062V79c0 1.067 0.6 2.043 1.552 2.526l26.559 13.459c0.403 0.204 0.842 0.306 1.28 0.306 0.515 0 1.029-0.14 1.482-0.419 0.006-0.004 0.012-0.008 0.018-0.012l3.311-1.894 13.396 6.789c0.403 0.204 0.842 0.306 1.28 0.306 0.515 0 1.029-0.14 1.483-0.419 0.007-0.004 0.013-0.009 0.02-0.013l10.9-6.236c0.882-0.504 1.425-1.442 1.425-2.458V64.395l2.961 1.5c0.403 0.204 0.842 0.306 1.28 0.306 0.515 0 1.029-0.14 1.482-0.419 0.007-0.004 0.014-0.01 0.021-0.014l10.899-6.235c0.881-0.504 1.425-1.442 1.425-2.458V16.287C90.387 16.275 90.386 16.264 90.386 16.252zM61.077 6.047l20.509 10.39-5.108 2.919L55.969 8.966 61.077 6.047zM36.172 87.85l-20.896-10.59V18.346l20.896 10.588V87.85zM38.922 23.977l-20.508-10.39 5.108-2.919 20.509 10.39L38.922 23.977zM47.169 84.522l-5.333 3.051V28.836l5.333-3.048v18.07V84.522zM55.659 92.619l-5.96-3.021 1.707-0.977c0.881-0.504 1.425-1.442 1.425-2.458V61.758l2.828 1.433V92.619zM58.409 58.234l-5.577-2.826v-5.507l10.685 5.413L58.409 58.234zM66.655 89.292l-5.333 3.051v-29.25l5.333-3.048V89.292zM72.317 55.131c0-0.013 0.001-0.025 0.001-0.038-0.001-0.02-0.003-0.041-0.004-0.061-0.001-0.031-0.003-0.062-0.006-0.093-0.003-0.032-0.006-0.065-0.01-0.098-0.003-0.03-0.007-0.06-0.011-0.09-0.005-0.033-0.01-0.065-0.016-0.097-0.006-0.029-0.011-0.059-0.018-0.088-0.007-0.032-0.014-0.064-0.022-0.095-0.008-0.029-0.015-0.058-0.024-0.087-0.009-0.031-0.018-0.062-0.028-0.093-0.009-0.029-0.019-0.057-0.029-0.085-0.011-0.03-0.022-0.06-0.034-0.089-0.011-0.028-0.023-0.057-0.035-0.084-0.012-0.029-0.025-0.057-0.038-0.085-0.014-0.028-0.028-0.056-0.042-0.084-0.014-0.027-0.028-0.054-0.043-0.08-0.016-0.028-0.032-0.056-0.049-0.083-0.015-0.025-0.03-0.05-0.046-0.075-0.018-0.028-0.037-0.055-0.056-0.082-0.017-0.023-0.033-0.047-0.05-0.07-0.02-0.027-0.041-0.054-0.063-0.08-0.018-0.022-0.035-0.044-0.053-0.065-0.022-0.026-0.046-0.052-0.069-0.077-0.019-0.02-0.037-0.041-0.057-0.061-0.024-0.025-0.05-0.049-0.075-0.073-0.02-0.019-0.04-0.038-0.06-0.057-0.026-0.023-0.052-0.045-0.079-0.068-0.022-0.018-0.043-0.036-0.065-0.054-0.027-0.021-0.055-0.041-0.083-0.062-0.023-0.017-0.046-0.034-0.07-0.051-0.028-0.019-0.057-0.037-0.086-0.056-0.025-0.016-0.049-0.032-0.075-0.047-0.005-0.003-0.01-0.006-0.014-0.009-0.027-0.015-0.054-0.029-0.081-0.043-0.02-0.011-0.04-0.023-0.061-0.034l-17.935-9.086V20.908v-7.183l20.896 10.588V58.76l-1.409-0.714v-2.882C72.319 55.153 72.317 55.142 72.317 55.131zM84.724 55.433l-5.333 3.051V24.215l5.333-3.048V55.433z" data-fill-palette-color="accent"></path></svg></g></svg></g></svg></g><defs></defs></svg><rect width="395.52" height="117.77058040154553" fill="none" stroke="none" visibility="hidden"></rect></g></svg></g></svg>